<?xml version="1.0" encoding="UTF-8" standalone="no"?>
<!-- Created with Inkscape (http://www.inkscape.org/) -->

<svg
   xmlns:dc="http://purl.org/dc/elements/1.1/"
   xmlns:cc="http://creativecommons.org/ns#"
   xmlns:rdf="http://www.w3.org/1999/02/22-rdf-syntax-ns#"
   xmlns:svg="http://www.w3.org/2000/svg"
   xmlns="http://www.w3.org/2000/svg"
   xmlns:xlink="http://www.w3.org/1999/xlink"
   xmlns:sodipodi="http://sodipodi.sourceforge.net/DTD/sodipodi-0.dtd"
   xmlns:inkscape="http://www.inkscape.org/namespaces/inkscape"
   width="32"
   height="32"
   viewBox="0 0 32 32.000001"
   id="svg4166"
   version="1.1"
   inkscape:version="0.91 r13725"
   sodipodi:docname="artemanufrij.translit.svg">
  <defs
     id="defs4168">
    <linearGradient
       inkscape:collect="always"
       id="linearGradient4191">
      <stop
         style="stop-color:#000000;stop-opacity:0"
         offset="0"
         id="stop4193" />
      <stop
         style="stop-color:#000000;stop-opacity:0.03921569"
         offset="1"
         id="stop4195" />
    </linearGradient>
    <linearGradient
       inkscape:collect="always"
       id="linearGradient4202">
      <stop
         offset="0"
         id="stop4204"
         style="stop-color:#ffffff;stop-opacity:0.1" />
      <stop
         id="stop4187"
         offset="0.2"
         style="stop-color:#ffffff;stop-opacity:0.05" />
      <stop
         id="stop4185"
         offset="0.80000001"
         style="stop-color:#ffffff;stop-opacity:0.05" />
      <stop
         offset="1"
         id="stop4206"
         style="stop-color:#ffffff;stop-opacity:0.30000001" />
    </linearGradient>
    <filter
       style="color-interpolation-filters:sRGB;"
       inkscape:label="Drop Shadow"
       id="filter4190">
      <feFlood
         flood-opacity="0.498039"
         flood-color="rgb(0,0,0)"
         result="flood"
         id="feFlood4192" />
      <feComposite
         in="flood"
         in2="SourceGraphic"
         operator="in"
         result="composite1"
         id="feComposite4194" />
      <feGaussianBlur
         in="composite1"
         stdDeviation="1"
         result="blur"
         id="feGaussianBlur4196" />
      <feOffset
         dx="1.38778e-16"
         dy="1"
         result="offset"
         id="feOffset4198" />
      <feComposite
         in="SourceGraphic"
         in2="offset"
         operator="over"
         result="composite2"
         id="feComposite4200" />
    </filter>
    <linearGradient
       inkscape:collect="always"
       xlink:href="#linearGradient4202"
       id="linearGradient4208"
       x1="16"
       y1="1049"
       x2="16"
       y2="1024"
       gradientUnits="userSpaceOnUse" />
    <filter
       style="color-interpolation-filters:sRGB;"
       inkscape:label="Drop Shadow"
       id="filter4181">
      <feFlood
         flood-opacity="0.498039"
         flood-color="rgb(0,0,0)"
         result="flood"
         id="feFlood4183" />
      <feComposite
         in="flood"
         in2="SourceGraphic"
         operator="in"
         result="composite1"
         id="feComposite4185" />
      <feGaussianBlur
         in="composite1"
         stdDeviation="1"
         result="blur"
         id="feGaussianBlur4187" />
      <feOffset
         dx="1.38778e-16"
         dy="1"
         result="offset"
         id="feOffset4189" />
      <feComposite
         in="SourceGraphic"
         in2="offset"
         operator="over"
         result="composite2"
         id="feComposite4191" />
    </filter>
    <radialGradient
       inkscape:collect="always"
       xlink:href="#linearGradient4173"
       id="radialGradient4179"
       cx="16"
       cy="-2.8"
       fx="16"
       fy="-2.8"
       r="14"
       gradientTransform="matrix(0.92857143,0,0,0.71428572,1.14286,5)"
       gradientUnits="userSpaceOnUse" />
    <linearGradient
       inkscape:collect="always"
       id="linearGradient4173">
      <stop
         style="stop-color:#ffffff;stop-opacity:0.26666668"
         offset="0"
         id="stop4175" />
      <stop
         style="stop-color:#ffffff;stop-opacity:0"
         offset="1"
         id="stop4177" />
    </linearGradient>
    <linearGradient
       inkscape:collect="always"
       xlink:href="#linearGradient4191"
       id="linearGradient4197"
       x1="16"
       y1="1024"
       x2="16"
       y2="1049"
       gradientUnits="userSpaceOnUse"
       gradientTransform="matrix(1.0833333,0,0,1.0833333,-1.3333333,-86.363496)" />
  </defs>
  <sodipodi:namedview
     id="base"
     pagecolor="#ffffff"
     bordercolor="#666666"
     borderopacity="1.0"
     inkscape:pageopacity="0.0"
     inkscape:pageshadow="2"
     inkscape:zoom="16"
     inkscape:cx="17.239649"
     inkscape:cy="15.538124"
     inkscape:document-units="px"
     inkscape:current-layer="layer2"
     showgrid="false"
     units="px"
     inkscape:window-width="1640"
     inkscape:window-height="1241"
     inkscape:window-x="1723"
     inkscape:window-y="166"
     inkscape:window-maximized="0" />
  <metadata
     id="metadata4171">
    <rdf:RDF>
      <cc:Work
         rdf:about="">
        <dc:format>image/svg+xml</dc:format>
        <dc:type
           rdf:resource="http://purl.org/dc/dcmitype/StillImage" />
        <dc:title />
      </cc:Work>
    </rdf:RDF>
  </metadata>
  <g
     inkscape:label="Layer 1"
     inkscape:groupmode="layer"
     id="layer1"
     transform="translate(0,-1020.3622)"
     style="opacity:1">
    <rect
       style="opacity:1;fill:#404040;fill-opacity:1;stroke:none;stroke-width:1;stroke-miterlimit:4;stroke-dasharray:none;stroke-opacity:0"
       id="rect4716"
       width="14"
       height="28"
       x="2"
       y="1022.3622"
       rx="3"
       ry="3" />
    <rect
       ry="3"
       rx="3"
       y="1022.3622"
       x="16.000002"
       height="28"
       width="14"
       id="rect4174"
       style="opacity:1;fill:#c0c0c0;fill-opacity:1;stroke:none;stroke-width:1;stroke-miterlimit:4;stroke-dasharray:none;stroke-opacity:0" />
    <rect
       style="opacity:1;fill:#c0c0c0;fill-opacity:1;stroke:none;stroke-width:1;stroke-miterlimit:4;stroke-dasharray:none;stroke-opacity:0"
       id="rect4178"
       width="4"
       height="28"
       x="16.000002"
       y="1022.3622"
       rx="0"
       ry="0" />
    <rect
       ry="0"
       rx="0"
       y="1022.3622"
       x="12"
       height="28"
       width="4"
       id="rect4176"
       style="opacity:1;fill:#404040;fill-opacity:1;stroke:none;stroke-width:1;stroke-miterlimit:4;stroke-dasharray:none;stroke-opacity:0" />
    <rect
       ry="2.5"
       rx="2.5"
       y="1022.8622"
       x="2.5"
       height="27"
       width="27"
       id="rect4718"
       style="opacity:1;fill:none;fill-opacity:1;stroke:#000000;stroke-width:1;stroke-miterlimit:4;stroke-dasharray:none;stroke-opacity:0.33000004" />
    <rect
       style="opacity:1;fill:none;fill-opacity:1;stroke:url(#linearGradient4208);stroke-width:1;stroke-miterlimit:4;stroke-dasharray:none;stroke-opacity:1"
       id="rect4728"
       width="25"
       height="25"
       x="3.5"
       y="1023.8622"
       rx="1.5"
       ry="1.5" />
    <rect
       ry="2"
       rx="2"
       y="1023.3622"
       x="3"
       height="26"
       width="26"
       id="rect4189"
       style="opacity:1;fill:url(#linearGradient4197);fill-opacity:1;stroke:none;stroke-width:1;stroke-miterlimit:4;stroke-dasharray:none;stroke-opacity:1" />
  </g>
  <g
     inkscape:groupmode="layer"
     id="layer2"
     inkscape:label="Icon"
     style="display:inline;opacity:1">
    <g
       id="g4250"
       style="font-style:normal;font-weight:normal;font-size:38.26338577px;line-height:125%;font-family:sans-serif;letter-spacing:0px;word-spacing:0px;fill:#000000;fill-opacity:1;stroke:none;stroke-width:1px;stroke-linecap:butt;stroke-linejoin:miter;stroke-opacity:1;opacity:0.5"
       transform="matrix(1.0608609,0,0,1.0368937,1.1046073e-7,-1.0999987)">
      <path
         inkscape:connector-curvature="0"
         id="path4252"
         style="fill:#000000;fill-opacity:1"
         d="m 12.737921,15.698055 q 0,1.272799 -0.496275,2.230318 -0.496275,0.951681 -1.407086,1.459633 -0.9108109,0.507952 -2.101871,0.507952 l -3.0769054,0 0,-8.226489 2.7207551,0 q 2.0901933,0 3.2228683,1.050935 1.138514,1.045097 1.138514,2.977651 z m -1.120998,0 q 0,-1.529695 -0.840748,-2.329574 -0.8349103,-0.805717 -2.4229905,-0.805717 l -1.5822416,0 0,6.439899 1.8332984,0 q 0.9049722,0 1.5880807,-0.39702 0.688946,-0.39702 1.056773,-1.144352 0.367828,-0.747332 0.367828,-1.763236 z" />
      <path
         inkscape:connector-curvature="0"
         id="path4254"
         style="font-size:11.95730972px;fill:#000000;fill-opacity:1"
         d="m 23.486655,18.961793 1.021742,0 0,3.316285 -1.050935,0 0,-2.38212 -5.686728,0 0,2.38212 -1.050936,0 0,-3.316285 0.840749,0 q 0.455405,-0.566337 0.770686,-1.58808 0.321119,-1.027581 0.537144,-2.726594 l 0.391182,-2.97765 4.227096,0 0,7.292324 z m -1.085967,0 0,-6.358159 -2.189449,0 -0.286088,2.148579 q -0.216025,1.599757 -0.478759,2.609823 -0.262734,1.010066 -0.630561,1.599757 l 3.584857,0 z" />
    </g>
    <rect
       style="display:inline;opacity:0.5;fill:#202020;fill-opacity:1;stroke:none;stroke-width:1;stroke-miterlimit:4;stroke-dasharray:none;stroke-opacity:0"
       id="rect4178-3"
       width="1"
       height="26"
       x="15"
       y="3"
       rx="0"
       ry="0" />
    <rect
       ry="0"
       rx="0"
       y="3"
       x="15.999998"
       height="26"
       width="1"
       id="rect4225"
       style="display:inline;opacity:0.5;fill:#e0e0e0;fill-opacity:1;stroke:none;stroke-width:1;stroke-miterlimit:4;stroke-dasharray:none;stroke-opacity:0" />
    <g
       transform="matrix(1.0608609,0,0,1.0368937,1.1046073e-7,-2.0999988)"
       style="font-style:normal;font-weight:normal;font-size:38.26338577px;line-height:125%;font-family:sans-serif;letter-spacing:0px;word-spacing:0px;fill:#000000;fill-opacity:1;stroke:none;stroke-width:1px;stroke-linecap:butt;stroke-linejoin:miter;stroke-opacity:1"
       id="text4233">
      <path
         d="m 12.737921,15.698055 q 0,1.272799 -0.496275,2.230318 -0.496275,0.951681 -1.407086,1.459633 -0.9108109,0.507952 -2.101871,0.507952 l -3.0769054,0 0,-8.226489 2.7207551,0 q 2.0901933,0 3.2228683,1.050935 1.138514,1.045097 1.138514,2.977651 z m -1.120998,0 q 0,-1.529695 -0.840748,-2.329574 -0.8349103,-0.805717 -2.4229905,-0.805717 l -1.5822416,0 0,6.439899 1.8332984,0 q 0.9049722,0 1.5880807,-0.39702 0.688946,-0.39702 1.056773,-1.144352 0.367828,-0.747332 0.367828,-1.763236 z"
         style="fill:#ffffff;fill-opacity:1"
         id="path4246"
         inkscape:connector-curvature="0" />
      <path
         d="m 23.486655,18.961793 1.021742,0 0,3.316285 -1.050935,0 0,-2.38212 -5.686728,0 0,2.38212 -1.050936,0 0,-3.316285 0.840749,0 q 0.455405,-0.566337 0.770686,-1.58808 0.321119,-1.027581 0.537144,-2.726594 l 0.391182,-2.97765 4.227096,0 0,7.292324 z m -1.085967,0 0,-6.358159 -2.189449,0 -0.286088,2.148579 q -0.216025,1.599757 -0.478759,2.609823 -0.262734,1.010066 -0.630561,1.599757 l 3.584857,0 z"
         style="font-size:11.95730972px"
         id="path4248"
         inkscape:connector-curvature="0" />
    </g>
  </g>
  <g
     inkscape:groupmode="layer"
     id="layer3"
     inkscape:label="Spot"
     style="display:none">
    <rect
       style="fill:url(#radialGradient4179);fill-opacity:1;fill-rule:evenodd;stroke:none;stroke-width:1px;stroke-linecap:butt;stroke-linejoin:miter;stroke-opacity:1"
       id="rect3371"
       width="26"
       height="10"
       x="3"
       y="3"
       rx="2"
       ry="2" />
  </g>
</svg>
